<svg id="Layer_1" data-name="Layer 1" xmlns="http://www.w3.org/2000/svg" width="1280" height="1099.71" viewBox="0 0 1280 1099.71">
  <g>
    <path d="M659.951,442.894c0-59.381-41.828-107.073-97.456-107.073H441.18a10.852,10.852,0,0,0-10.853,10.853V596.842A10.852,10.852,0,0,0,441.18,607.7h44.794a10.852,10.852,0,0,0,10.853-10.853V539.931h47.685l41.536,62.892A10.848,10.848,0,0,0,595.1,607.7h54.787a10.854,10.854,0,0,0,8.767-17.25l-47.222-64.724C640.289,510.232,659.951,482.221,659.951,442.894Zm-107.916,37.23H496.827V402.75h55.624A40.154,40.154,0,0,1,592.6,442.894C592.6,465.488,574.2,480.124,552.035,480.124Zm149.105,98.8,25.571,25.563a10.964,10.964,0,0,0,15.461.043l65.858-65.109,64.988,65.362a10.964,10.964,0,0,0,15.568-.017l25.584-25.842a10.963,10.963,0,0,0,0-15.421l-65.145-65.9,65.117-66.244a10.967,10.967,0,0,0-.106-15.476L888.188,390.3a10.961,10.961,0,0,0-15.508.083l-64.65,65.4-66.237-65.114a10.961,10.961,0,0,0-15.476.106l-25.584,25.843a10.964,10.964,0,0,0,.083,15.509l65.807,65.061L701.1,563.462A10.966,10.966,0,0,0,701.14,578.924Zm570.913,43.425-26.042-8.361c.458-6.646.7-13.322.7-19.985a285.238,285.238,0,0,0-83.933-202.694,32.23,32.23,0,1,0-45.635,45.524,221.178,221.178,0,0,1,65.089,156.678l-23.937-7.684a11.437,11.437,0,0,0-14.675,13.309l25.251,116.76a11.438,11.438,0,0,0,18.862,6.056l88.5-80.238A11.439,11.439,0,0,0,1272.053,622.349Zm-113.87,144.72a32.219,32.219,0,0,0-28.684,35.42,199.232,199.232,0,0,1-6.052,73.8c-25.112,91.77-107.491,157.133-200.316,158.928a214.029,214.029,0,0,1-124.673-37.887l20.976-21.661A11.439,11.439,0,0,0,814,956.618L698.124,927.566A11.438,11.438,0,0,0,684.342,941.8l32.76,114.881a11.439,11.439,0,0,0,19.218,4.82l16.7-17.241A274.906,274.906,0,0,0,919,1099.71c1.786,0,3.581-.018,5.367-.055,121.213-2.35,228.639-87.2,261.256-206.34a263.73,263.73,0,0,0,7.976-97.562A32.071,32.071,0,0,0,1158.183,767.069ZM627.076,853.343a212.01,212.01,0,0,1-41.019,3.979c-39.972,0-76.711-9.374-107.99-27.059l19.389-20.747a11.439,11.439,0,0,0-5.773-18.952L375.309,763.575a11.439,11.439,0,0,0-13.528,14.474l34.8,114.281a11.44,11.44,0,0,0,19.3,4.478l17.122-18.326c43.734,28.391,96.17,43.314,153.052,43.314a277.476,277.476,0,0,0,53.491-5.2,32.235,32.235,0,0,0-12.472-63.253ZM310.719,684.885a234.111,234.111,0,0,1-43.331-1.906C155.048,667.471,67.849,570.556,64.564,457.522a234.412,234.412,0,0,1,74.148-178.039l10.049,20.5a11.44,11.44,0,0,0,19.769,1.338L235.1,202.127a11.438,11.438,0,0,0-8.72-17.787L107.2,176.262a11.437,11.437,0,0,0-11.043,16.449L109.288,219.5A298.837,298.837,0,0,0,.127,459.41c4.192,144.1,115.3,267.668,258.452,287.413a295.926,295.926,0,0,0,40.694,2.8q7.329,0,14.629-.37a32.215,32.215,0,0,0,30.6-33.773C343.622,697.709,328.2,683.534,310.719,684.885ZM297.358,189.91a32.144,32.144,0,0,0,23.215-9.882A255.749,255.749,0,0,1,464.5,104.638l-2.84,24.13a11.438,11.438,0,0,0,15.882,11.845L587.27,93.385a11.436,11.436,0,0,0,2.317-19.675L493.834,2.283a11.44,11.44,0,0,0-18.2,7.831L472.27,38.681a319.708,319.708,0,0,0-198.128,96.637,32.243,32.243,0,0,0,23.216,54.592ZM1035.142,238.2l-22.369,7.176a11.438,11.438,0,0,0-4.187,19.364L1097.072,345a11.437,11.437,0,0,0,18.862-6.053l25.279-116.755a11.438,11.438,0,0,0-14.675-13.311l-28.513,9.148C1034.707,103.728,912.68,30.89,781.183,30.89A358.977,358.977,0,0,0,657.055,53.023,32.236,32.236,0,0,0,679.3,113.537,294.263,294.263,0,0,1,781.183,95.364C884.977,95.364,981.522,150.626,1035.142,238.2Z"/>
    <path d="M808.451,708.587H793.193a5.213,5.213,0,0,0-5.214,5.215V771.61a5.212,5.212,0,0,0,5.214,5.215h15.258a5.212,5.212,0,0,0,5.214-5.215V713.8A5.213,5.213,0,0,0,808.451,708.587Zm-7.629-39.845a14.9,14.9,0,1,0,0,29.806,14.9,14.9,0,0,0,0-29.806Zm78.441,20.479c-34.744,0-45.205,19.555-45.205,45.61V771.61a5.217,5.217,0,0,0,5.219,5.215h15.091a5.216,5.216,0,0,0,5.219-5.215V734.831c0-13.473,4.6-20.535,19.676-20.567,15.073.032,19.677,7.094,19.677,20.567V771.61a5.216,5.216,0,0,0,5.218,5.215H919.25a5.216,5.216,0,0,0,5.218-5.215V734.831C924.468,708.776,914.008,689.221,879.263,689.221ZM1032.935,675a5.215,5.215,0,0,0-5.214-5.215h-15.262a5.212,5.212,0,0,0-5.214,5.215v18.258a45.637,45.637,0,1,0,25.69,40.934c0-.018,0-.036,0-.054l0-.008Zm-45.751,80.862a21.671,21.671,0,1,1,21.671-21.67A21.67,21.67,0,0,1,987.184,755.862ZM761.677,669.785H744.388a5.193,5.193,0,0,0-4.626,2.836l-29.35,57.765-29.35-57.765a5.182,5.182,0,0,0-4.622-2.836H659.151A5.216,5.216,0,0,0,653.937,675v96.61a5.215,5.215,0,0,0,5.214,5.215h15.258a5.216,5.216,0,0,0,5.214-5.215V722.149l23.8,51.643a5.214,5.214,0,0,0,4.738,3.033h4.51a5.214,5.214,0,0,0,4.738-3.033l23.8-51.643V771.61a5.217,5.217,0,0,0,5.219,5.215h15.253a5.212,5.212,0,0,0,5.214-5.215V675A5.212,5.212,0,0,0,761.677,669.785Z" fill="#b72cd7"/>
  </g>
</svg>
